<svg width="13" height="15" viewBox="0 0 13 15" fill="none" >
<path d="M9.27994 3.51099C7.96794 3.51099 7.41294 4.15499 6.49894 4.15499C5.56194 4.15499 4.84694 3.51499 3.71094 3.51499C3.08527 3.55283 2.47877 3.7453 1.94578 4.07515C1.41278 4.405 0.969942 4.86193 0.656938 5.40499C-0.401062 7.08399 -0.222062 10.247 1.49294 12.942C2.10594 13.907 2.92594 14.988 3.99994 15H4.01994C4.95294 15 5.23094 14.371 6.51994 14.363H6.53994C7.80494 14.363 8.05894 14.996 8.98894 14.996H9.00894C10.0829 14.984 10.9459 13.785 11.5589 12.825C11.9316 12.25 12.248 11.6406 12.5039 11.005C11.9282 10.7689 11.4298 10.3766 11.065 9.87248C10.7002 9.36834 10.4834 8.77232 10.4391 8.1516C10.3948 7.53088 10.5248 6.91013 10.8143 6.3593C11.1039 5.80847 11.5415 5.34946 12.0779 5.03399C11.7565 4.58707 11.3387 4.21816 10.8554 3.95453C10.3721 3.69091 9.83572 3.53932 9.28594 3.51099H9.27994Z" fill="white"/>
<path d="M8.99083 0C8.11755 0.109135 7.32011 0.551202 6.76483 1.234C6.48709 1.55852 6.27926 1.93684 6.15434 2.34531C6.02942 2.75379 5.9901 3.18364 6.03884 3.608H6.10084C6.52824 3.58509 6.94528 3.46785 7.32202 3.2647C7.69875 3.06155 8.02585 2.77752 8.27983 2.433C8.82869 1.74764 9.08427 0.873057 8.99083 0Z" fill="white"/>
</svg>
