<svg width="9" height="15" viewBox="0 0 9 15" fill="none" >
<path d="M8.07189 8.47697L8.48589 5.77697H5.89989V4.02797C5.88187 3.82674 5.90928 3.62403 5.9801 3.43481C6.05091 3.24559 6.16333 3.07469 6.30904 2.93474C6.45476 2.79478 6.63005 2.68934 6.82197 2.62621C7.01389 2.56308 7.21754 2.54386 7.41789 2.56997H8.59989V0.271975C7.90727 0.160219 7.2074 0.0993897 6.50589 0.0899746C6.02427 0.0532594 5.54047 0.122912 5.08876 0.293998C4.63706 0.465083 4.22851 0.733414 3.89206 1.07998C3.55561 1.42654 3.29949 1.84286 3.14186 2.29943C2.98422 2.756 2.92893 3.24165 2.97989 3.72197V5.77898H0.608887V8.47897H2.97989V15H5.89989V8.47697H8.07189Z" fill="white"/>
</svg>
