<svg width="15" height="16" viewBox="0 0 15 16" fill="none" >
<path d="M14.6291 6.722L14.5531 6.401H7.5741V9.355H11.7441C11.5132 10.2599 10.9854 11.0613 10.2451 11.6307C9.50487 12.2002 8.595 12.5049 7.6611 12.496C6.44065 12.4858 5.2683 12.0187 4.3751 11.187C3.93551 10.7543 3.58558 10.2391 3.34535 9.67093C3.10512 9.10278 2.9793 8.49283 2.9751 7.876C2.9925 6.63697 3.48466 5.45185 4.3501 4.565C5.23143 3.73244 6.40178 3.27491 7.6141 3.289C8.6399 3.30327 9.62605 3.6875 10.3911 4.371L12.4911 2.283C11.1323 1.06336 9.37194 0.386965 7.5461 0.383C5.52266 0.371377 3.57716 1.16252 2.1361 2.583C0.7633 4.00546 -0.00235109 5.90614 0.00109723 7.883C-0.0098536 9.81943 0.724942 11.6858 2.0531 13.095C2.79314 13.8344 3.67387 14.418 4.64327 14.8114C5.61266 15.2047 6.65105 15.3997 7.6971 15.385C8.64283 15.3926 9.58022 15.2076 10.4521 14.841C11.3239 14.4745 12.1119 13.9341 12.7681 13.253C14.0566 11.837 14.7537 9.98115 14.7161 8.067C14.7222 7.61708 14.6931 7.16738 14.6291 6.722Z" fill="white"/>
</svg>
