<svg width="19" height="24" viewBox="0 0 19 24" fill="none" >
<path d="M19 21.326C19.0274 18.4688 18.0744 15.6886 16.3 13.449C15.529 12.4774 14.5484 11.6925 13.4315 11.153C12.3147 10.6135 11.0903 10.3333 9.84997 10.3333C8.60961 10.3333 7.38527 10.6135 6.26839 11.153C5.15152 11.6925 4.17097 12.4774 3.39996 13.449C1.62725 15.6861 0.67436 18.4629 0.699966 21.317C3.54877 22.7391 6.66906 23.5346 9.85097 23.65C13.0406 23.6027 16.1744 22.8067 19 21.326Z" fill="#A0A0A0"/>
<path d="M9.84797 9.50301C12.3752 9.50301 14.424 7.45427 14.424 4.92701C14.424 2.39976 12.3752 0.351013 9.84797 0.351013C7.32072 0.351013 5.27197 2.39976 5.27197 4.92701C5.27197 7.45427 7.32072 9.50301 9.84797 9.50301Z" fill="#A0A0A0"/>
</svg>
