<svg width="26" height="25" viewBox="0 0 26 25" fill="none" >
<path d="M11.137 21.5C11.145 21.6993 11.0932 21.8964 10.9883 22.0661C10.8834 22.2357 10.7301 22.3701 10.5482 22.4519C10.3664 22.5338 10.1641 22.5594 9.96761 22.5254C9.77107 22.4915 9.58917 22.3995 9.44529 22.2614C9.3014 22.1233 9.20211 21.9453 9.16017 21.7503C9.11824 21.5553 9.13556 21.3522 9.20993 21.1671C9.2843 20.9821 9.41231 20.8235 9.57752 20.7117C9.74272 20.6 9.93757 20.5402 10.137 20.54C10.3969 20.5349 10.6481 20.6332 10.8356 20.8131C11.0231 20.9931 11.1315 21.2402 11.137 21.5V21.5Z" stroke="#333333" stroke-width="3" stroke-linecap="round" stroke-linejoin="round"/>
<path d="M22.137 21.5C22.145 21.6993 22.0932 21.8964 21.9883 22.0661C21.8834 22.2357 21.7301 22.3701 21.5482 22.4519C21.3664 22.5338 21.1641 22.5594 20.9676 22.5254C20.7711 22.4915 20.5892 22.3995 20.4453 22.2614C20.3014 22.1233 20.2021 21.9453 20.1602 21.7503C20.1182 21.5553 20.1356 21.3522 20.2099 21.1671C20.2843 20.9821 20.4123 20.8235 20.5775 20.7117C20.7427 20.6 20.9376 20.5402 21.137 20.54C21.3969 20.5349 21.6481 20.6332 21.8356 20.8131C22.0231 20.9931 22.1315 21.2402 22.137 21.5V21.5Z" stroke="#333333" stroke-width="3" stroke-linecap="round" stroke-linejoin="round"/>
<path d="M2.13696 1.54001H6.13696L8.81696 14.93C8.90841 15.3904 9.15887 15.804 9.52451 16.0983C9.89015 16.3926 10.3477 16.549 10.817 16.54H20.537C21.0063 16.549 21.4638 16.3926 21.8294 16.0983C22.1951 15.804 22.4455 15.3904 22.537 14.93L24.137 6.54001H7.13696" stroke="#333333" stroke-width="3" stroke-linecap="round" stroke-linejoin="round"/>
</svg>
